# xmcd
#
# Track frame offsets: 
#        150
#        12475
#        36462
#        58567
#        68157
#        86242
#        108162
#        121192
#        136800
#        153627
#        177300
#        204410
#        221662
#        237595
#        249855
#        272380
#
# Disc length: 4061 seconds
#
# Revision: 3
# Processed by: cddbd v1.5.2PL0 Copyright (c) Steve Scherf et al.
# Submitted via: ExactAudioCopy v1.0b2
#
DISCID=e10fdb10
DTITLE=Ella Fitzgerald - For The Love Of Ella Fitzgerald CD2of2
DYEAR=1997
DGENRE=Jazz
TTITLE0=Misty
TTITLE1=Sophisticated Lady
TTITLE2=Midnight Sun
TTITLE3=Solitude
TTITLE4=How Long, How Long Blues
TTITLE5=I Loves You Porgy
TTITLE6=Summertime
TTITLE7=Mood Indigo
TTITLE8=Laura
TTITLE9=Stormy Weather
TTITLE10=Autumn In New York
TTITLE11=These Foolsih Things
TTITLE12=I Can't Get Started
TTITLE13=See See Rider
TTITLE14=I Love Paris
TTITLE15=Blues In The Night
EXTD=
EXTT0=
EXTT1=
EXTT2=
EXTT3=
EXTT4=
EXTT5=
EXTT6=
EXTT7=
EXTT8=
EXTT9=
EXTT10=
EXTT11=
EXTT12=
EXTT13=
EXTT14=
EXTT15=
PLAYORDER=
